<svg width="41" height="41" viewBox="0 0 41 41" fill="none" xmlns="http://www.w3.org/2000/svg">
<path d="M35.875 5.125H34.1668V1.70823C34.1668 0.765434 33.4013 0 32.4582 0H30.75C29.8069 0 29.0418 0.765434 29.0418 1.70823V5.125H11.9582V1.70823C11.9582 0.765434 11.1931 0 10.25 0H8.54177C7.59866 0 6.83323 0.765434 6.83323 1.70823V5.125H5.125C2.29943 5.125 0 7.42443 0 10.25V35.875C0 38.7006 2.29943 41 5.125 41H35.875C38.7006 41 41 38.7006 41 35.875V10.25C41 7.42443 38.7006 5.125 35.875 5.125ZM37.5832 35.875C37.5832 36.8162 36.8162 37.5832 35.875 37.5832H5.125C4.18377 37.5832 3.41677 36.8162 3.41677 35.875V17.1517H37.5832V35.875Z" fill="black"/>
</svg>
